<mxfile host="app.diagrams.net" modified="2024-03-23T12:24:04.062Z" agent="Mozilla/5.0 (Windows NT 10.0; Win64; x64) AppleWebKit/537.36 (KHTML, like Gecko) Chrome/122.0.0.0 Safari/537.36" etag="tOeM0i4QHl2XFYGTzdhG" version="23.0.2" type="github">
  <diagram name="Page-1" id="CemEBRkSzwkYNfs3ROtx">
    <mxGraphModel dx="1886" dy="828" grid="1" gridSize="10" guides="1" tooltips="1" connect="1" arrows="1" fold="1" page="1" pageScale="1" pageWidth="827" pageHeight="1169" math="0" shadow="0">
      <root>
        <mxCell id="0" />
        <mxCell id="1" parent="0" />
        <mxCell id="Zbdr4TXCIVdiAfYFFAAR-2" value="" style="whiteSpace=wrap;html=1;aspect=fixed;fontStyle=1" vertex="1" parent="1">
          <mxGeometry x="30" y="20" width="790" height="790" as="geometry" />
        </mxCell>
        <mxCell id="Zbdr4TXCIVdiAfYFFAAR-26" style="edgeStyle=orthogonalEdgeStyle;rounded=0;orthogonalLoop=1;jettySize=auto;html=1;endArrow=block;endFill=0;" edge="1" parent="1">
          <mxGeometry relative="1" as="geometry">
            <mxPoint x="125" y="350" as="sourcePoint" />
            <mxPoint x="125" y="230" as="targetPoint" />
          </mxGeometry>
        </mxCell>
        <mxCell id="Zbdr4TXCIVdiAfYFFAAR-3" value="Modirator" style="shape=umlActor;verticalLabelPosition=bottom;verticalAlign=top;html=1;fontStyle=1" vertex="1" parent="1">
          <mxGeometry x="110" y="366" width="30" height="60" as="geometry" />
        </mxCell>
        <mxCell id="Zbdr4TXCIVdiAfYFFAAR-4" value="User" style="shape=umlActor;verticalLabelPosition=bottom;verticalAlign=top;html=1;fontStyle=1" vertex="1" parent="1">
          <mxGeometry x="110" y="126" width="30" height="60" as="geometry" />
        </mxCell>
        <mxCell id="Zbdr4TXCIVdiAfYFFAAR-25" style="edgeStyle=orthogonalEdgeStyle;rounded=0;orthogonalLoop=1;jettySize=auto;html=1;endArrow=open;endFill=0;" edge="1" parent="1">
          <mxGeometry relative="1" as="geometry">
            <mxPoint x="125" y="600" as="sourcePoint" />
            <mxPoint x="125" y="460" as="targetPoint" />
          </mxGeometry>
        </mxCell>
        <mxCell id="Zbdr4TXCIVdiAfYFFAAR-5" value="Administrator" style="shape=umlActor;verticalLabelPosition=bottom;verticalAlign=top;html=1;fontStyle=1" vertex="1" parent="1">
          <mxGeometry x="110" y="620" width="30" height="60" as="geometry" />
        </mxCell>
        <mxCell id="Zbdr4TXCIVdiAfYFFAAR-6" value="" style="rounded=0;whiteSpace=wrap;html=1;" vertex="1" parent="1">
          <mxGeometry x="220" y="96" width="580" height="694" as="geometry" />
        </mxCell>
        <mxCell id="Zbdr4TXCIVdiAfYFFAAR-7" value="consult the list of books" style="ellipse;whiteSpace=wrap;html=1;fontStyle=1" vertex="1" parent="1">
          <mxGeometry x="420" y="106" width="190" height="50" as="geometry" />
        </mxCell>
        <mxCell id="Zbdr4TXCIVdiAfYFFAAR-8" value="Search a book" style="ellipse;whiteSpace=wrap;html=1;fontStyle=1" vertex="1" parent="1">
          <mxGeometry x="430" y="166" width="190" height="50" as="geometry" />
        </mxCell>
        <mxCell id="Zbdr4TXCIVdiAfYFFAAR-9" value="Filter books" style="ellipse;whiteSpace=wrap;html=1;fontStyle=1" vertex="1" parent="1">
          <mxGeometry x="440" y="236" width="190" height="50" as="geometry" />
        </mxCell>
        <mxCell id="Zbdr4TXCIVdiAfYFFAAR-10" value="delete books" style="ellipse;whiteSpace=wrap;html=1;fontStyle=1" vertex="1" parent="1">
          <mxGeometry x="430" y="526" width="190" height="50" as="geometry" />
        </mxCell>
        <mxCell id="Zbdr4TXCIVdiAfYFFAAR-11" value="view all books" style="ellipse;whiteSpace=wrap;html=1;fontStyle=1" vertex="1" parent="1">
          <mxGeometry x="430" y="326" width="190" height="50" as="geometry" />
        </mxCell>
        <mxCell id="Zbdr4TXCIVdiAfYFFAAR-14" style="edgeStyle=orthogonalEdgeStyle;rounded=0;orthogonalLoop=1;jettySize=auto;html=1;entryX=1;entryY=0.5;entryDx=0;entryDy=0;exitX=1;exitY=0.5;exitDx=0;exitDy=0;endArrow=open;endFill=0;dashed=1;" edge="1" parent="1" source="Zbdr4TXCIVdiAfYFFAAR-12" target="Zbdr4TXCIVdiAfYFFAAR-13">
          <mxGeometry relative="1" as="geometry" />
        </mxCell>
        <mxCell id="Zbdr4TXCIVdiAfYFFAAR-15" style="edgeStyle=orthogonalEdgeStyle;rounded=0;orthogonalLoop=1;jettySize=auto;html=1;exitX=1;exitY=0.5;exitDx=0;exitDy=0;entryX=1;entryY=0.5;entryDx=0;entryDy=0;dashed=1;endArrow=open;endFill=0;" edge="1" parent="1" source="Zbdr4TXCIVdiAfYFFAAR-12" target="Zbdr4TXCIVdiAfYFFAAR-10">
          <mxGeometry relative="1" as="geometry" />
        </mxCell>
        <mxCell id="Zbdr4TXCIVdiAfYFFAAR-12" value="add books" style="ellipse;whiteSpace=wrap;html=1;fontStyle=1" vertex="1" parent="1">
          <mxGeometry x="430" y="396" width="190" height="50" as="geometry" />
        </mxCell>
        <mxCell id="Zbdr4TXCIVdiAfYFFAAR-13" value="update books" style="ellipse;whiteSpace=wrap;html=1;fontStyle=1" vertex="1" parent="1">
          <mxGeometry x="430" y="456" width="190" height="50" as="geometry" />
        </mxCell>
        <mxCell id="Zbdr4TXCIVdiAfYFFAAR-16" value="" style="endArrow=open;html=1;rounded=0;entryX=0;entryY=0.5;entryDx=0;entryDy=0;endFill=0;" edge="1" parent="1" target="Zbdr4TXCIVdiAfYFFAAR-11">
          <mxGeometry width="50" height="50" relative="1" as="geometry">
            <mxPoint x="160" y="406" as="sourcePoint" />
            <mxPoint x="440" y="466" as="targetPoint" />
          </mxGeometry>
        </mxCell>
        <mxCell id="Zbdr4TXCIVdiAfYFFAAR-17" value="" style="endArrow=open;html=1;rounded=0;endFill=0;" edge="1" parent="1" target="Zbdr4TXCIVdiAfYFFAAR-12">
          <mxGeometry width="50" height="50" relative="1" as="geometry">
            <mxPoint x="160" y="416" as="sourcePoint" />
            <mxPoint x="440" y="361" as="targetPoint" />
          </mxGeometry>
        </mxCell>
        <mxCell id="Zbdr4TXCIVdiAfYFFAAR-18" value="" style="endArrow=open;html=1;rounded=0;endFill=0;entryX=0;entryY=0.5;entryDx=0;entryDy=0;" edge="1" parent="1" target="Zbdr4TXCIVdiAfYFFAAR-13">
          <mxGeometry width="50" height="50" relative="1" as="geometry">
            <mxPoint x="170" y="426" as="sourcePoint" />
            <mxPoint x="440" y="430" as="targetPoint" />
          </mxGeometry>
        </mxCell>
        <mxCell id="Zbdr4TXCIVdiAfYFFAAR-19" value="" style="endArrow=open;html=1;rounded=0;endFill=0;entryX=0;entryY=0.5;entryDx=0;entryDy=0;" edge="1" parent="1" target="Zbdr4TXCIVdiAfYFFAAR-10">
          <mxGeometry width="50" height="50" relative="1" as="geometry">
            <mxPoint x="180" y="436" as="sourcePoint" />
            <mxPoint x="450" y="440" as="targetPoint" />
          </mxGeometry>
        </mxCell>
        <mxCell id="Zbdr4TXCIVdiAfYFFAAR-21" value="" style="endArrow=open;html=1;rounded=0;entryX=0;entryY=0.5;entryDx=0;entryDy=0;endFill=0;" edge="1" parent="1" target="Zbdr4TXCIVdiAfYFFAAR-9">
          <mxGeometry width="50" height="50" relative="1" as="geometry">
            <mxPoint x="160" y="186" as="sourcePoint" />
            <mxPoint x="440" y="361" as="targetPoint" />
          </mxGeometry>
        </mxCell>
        <mxCell id="Zbdr4TXCIVdiAfYFFAAR-22" value="" style="endArrow=open;html=1;rounded=0;entryX=0;entryY=0.5;entryDx=0;entryDy=0;endFill=0;" edge="1" parent="1" target="Zbdr4TXCIVdiAfYFFAAR-8">
          <mxGeometry width="50" height="50" relative="1" as="geometry">
            <mxPoint x="160" y="176" as="sourcePoint" />
            <mxPoint x="450" y="271" as="targetPoint" />
          </mxGeometry>
        </mxCell>
        <mxCell id="Zbdr4TXCIVdiAfYFFAAR-23" value="" style="endArrow=open;html=1;rounded=0;entryX=0;entryY=0.5;entryDx=0;entryDy=0;endFill=0;" edge="1" parent="1" target="Zbdr4TXCIVdiAfYFFAAR-7">
          <mxGeometry width="50" height="50" relative="1" as="geometry">
            <mxPoint x="160" y="166" as="sourcePoint" />
            <mxPoint x="440" y="201" as="targetPoint" />
          </mxGeometry>
        </mxCell>
        <mxCell id="Zbdr4TXCIVdiAfYFFAAR-24" value="Books Management" style="text;html=1;strokeColor=none;fillColor=none;align=center;verticalAlign=middle;whiteSpace=wrap;rounded=0;fontStyle=1" vertex="1" parent="1">
          <mxGeometry x="360" y="40" width="180" height="30" as="geometry" />
        </mxCell>
      </root>
    </mxGraphModel>
  </diagram>
</mxfile>
